<svg width="132" height="18" viewBox="0 0 132 18" fill="none" xmlns="http://www.w3.org/2000/svg">
<g clip-path="url(#clip0_249_2)">
<mask id="mask0_249_2" style="mask-type:luminance" maskUnits="userSpaceOnUse" x="0" y="0" width="132" height="18">
<path d="M132 0H0V18H132V0Z" fill="white"/>
</mask>
<g mask="url(#mask0_249_2)">
<path fill-rule="evenodd" clip-rule="evenodd" d="M113.187 8.28411C114.848 8.28411 115.488 9.29961 115.578 10.184C115.584 10.2403 115.539 10.2893 115.482 10.2893H110.919C110.86 10.2893 110.815 10.238 110.823 10.1804C110.947 9.31671 111.713 8.28411 113.187 8.28411ZM115.688 13.9058C115.626 13.9058 115.568 13.935 115.532 13.985C115.121 14.5634 114.451 14.9207 113.45 14.9207C112.073 14.9207 110.876 14.016 110.747 12.7346C110.742 12.6782 110.786 12.6291 110.843 12.6291H114.998H119.041C119.065 12.5573 119.113 12.0083 119.113 11.5068C119.113 7.68741 116.834 5.41941 113.138 5.41941C110.043 5.41941 107.188 7.85441 107.188 11.674C107.188 15.6608 110.115 18.0003 113.403 18.0003C116.374 18.0003 118.256 16.3398 118.866 14.3335C118.87 14.3204 118.89 14.246 118.913 14.1366C118.938 14.0176 118.848 13.9058 118.726 13.9058H115.688ZM122.937 11.613L119.05 6.07781C118.96 5.95131 119.052 5.77741 119.207 5.77741H123.03C123.094 5.77741 123.155 5.81001 123.19 5.86401L125.188 8.90061C125.226 8.95871 125.312 8.95821 125.349 8.89971L127.3 5.86561C127.335 5.81071 127.396 5.77741 127.462 5.77741H131.065C131.22 5.77741 131.311 5.95251 131.221 6.07891L127.387 11.4688C127.34 11.5345 127.339 11.6222 127.386 11.6884C128.641 13.4735 130.076 15.5363 131.364 17.3408C131.454 17.4675 131.363 17.6421 131.207 17.6421H127.412C127.348 17.6421 127.287 17.6097 127.252 17.5559L125.18 14.4201C125.143 14.363 125.059 14.3625 125.021 14.4192C124.4 15.3406 123.59 16.6233 122.974 17.5562C122.939 17.6099 122.879 17.6421 122.814 17.6421H119.276C119.121 17.6421 119.03 17.4693 119.118 17.3429L122.938 11.831C122.983 11.7653 122.983 11.6785 122.937 11.613ZM102.341 17.4511V0.549514C102.341 0.444014 102.427 0.358514 102.533 0.358514H105.796C105.902 0.358514 105.988 0.444014 105.988 0.549514V17.4511C105.988 17.5566 105.902 17.6421 105.796 17.6421H102.533C102.427 17.6421 102.341 17.5566 102.341 17.4511ZM96.9665 17.4511V0.549514C96.9665 0.444014 97.0524 0.358514 97.1584 0.358514H100.422C100.528 0.358514 100.614 0.444014 100.614 0.549514V17.4511C100.614 17.5566 100.528 17.6421 100.422 17.6421H97.1584C97.0524 17.6421 96.9665 17.5566 96.9665 17.4511ZM88.896 14.8492C90.3596 14.8492 91.6074 13.7033 91.6074 11.6978C91.6074 9.64491 90.3839 8.57061 88.896 8.57061C87.3365 8.57061 86.1606 9.64491 86.1606 11.6978C86.1606 13.6553 87.3846 14.8492 88.896 14.8492ZM91.6315 16.1144C91.1037 17.2603 89.904 17.9762 88.4163 17.9762C84.913 17.9762 82.4898 15.3266 82.4898 11.674C82.4898 8.14081 84.7692 5.41941 88.2961 5.41941C90.4318 5.41941 91.3676 6.58921 91.6074 7.13821V5.96871C91.6074 5.86311 91.6934 5.77741 91.7994 5.77741H94.9426C95.0486 5.77741 95.1345 5.86311 95.1345 5.96871V17.4511C95.1345 17.5566 95.0486 17.6421 94.9426 17.6421H91.8021C91.6952 17.6421 91.6088 17.555 91.6104 17.4486C91.6167 17.0171 91.6315 16.0205 91.6315 16.1144ZM74.7072 5.90881L76.8931 12.5225C76.9224 12.6118 77.0508 12.6093 77.0765 12.5184L78.9433 5.91691C78.9665 5.83431 79.0421 5.77741 79.128 5.77741H82.2974C82.4268 5.77741 82.5192 5.90231 82.481 6.02511L78.9046 17.5076C78.8799 17.5877 78.8056 17.6421 78.7215 17.6421H75.3775C75.2952 17.6421 75.222 17.5897 75.1957 17.5121L72.7403 10.2506C72.7108 10.1638 72.5868 10.164 72.558 10.2511L70.1483 17.5112C70.1224 17.5892 70.0491 17.6421 69.9663 17.6421H66.5508C66.4668 17.6421 66.3928 17.5881 66.3674 17.5082L62.7449 6.02561C62.7062 5.90271 62.7984 5.77741 62.928 5.77741H66.3125C66.3984 5.77741 66.4738 5.83431 66.4972 5.91671L68.3645 12.4975C68.3904 12.5877 68.5179 12.5909 68.5479 12.5015L70.7569 5.90811C70.783 5.83011 70.8566 5.77741 70.9392 5.77741H74.5248C74.6076 5.77741 74.6814 5.83051 74.7072 5.90881ZM61.7549 9.12431C61.7549 9.24261 61.6476 9.33311 61.5306 9.31241C61.2054 9.25501 60.8963 9.23901 60.6031 9.23901C59.1395 9.23901 57.8199 10.0985 57.8199 12.4617V17.4511C57.8199 17.5566 57.7339 17.6421 57.6279 17.6421H54.3648C54.2586 17.6421 54.1726 17.5566 54.1726 17.4511V5.96871C54.1726 5.86311 54.2586 5.77741 54.3648 5.77741H57.5078C57.614 5.77741 57.6997 5.86311 57.6997 5.96871V7.37691C58.3236 6.04021 59.8354 5.65821 60.795 5.65821C61.0864 5.65821 61.3778 5.68941 61.6053 5.73941C61.693 5.75851 61.7549 5.83641 61.7549 5.92591V9.12431ZM48.7263 17.4511V5.96871C48.7263 5.86311 48.8122 5.77741 48.9182 5.77741H52.1816C52.2876 5.77741 52.3735 5.86311 52.3735 5.96871V17.4511C52.3735 17.5566 52.2876 17.6421 52.1816 17.6421H48.9182C48.8122 17.6421 48.7263 17.5566 48.7263 17.4511ZM50.5258 0.0244141C51.7255 0.0244141 52.6854 0.979313 52.6854 2.14881C52.6854 3.31861 51.7255 4.27351 50.5258 4.27351C49.374 4.27351 48.4142 3.31861 48.4142 2.14881C48.4142 0.979313 49.374 0.0244141 50.5258 0.0244141ZM37.105 10.7668H40.9613C41.0272 10.7668 41.0736 10.702 41.052 10.6401L39.1462 5.17511C39.1165 5.08981 38.9957 5.08941 38.9651 5.17441L37.0145 10.6394C36.9925 10.7015 37.0389 10.7668 37.105 10.7668ZM42.1603 14.2046H35.8572C35.7757 14.2046 35.7032 14.2554 35.6762 14.3317L34.5429 17.5148C34.5159 17.591 34.4435 17.6421 34.362 17.6421H30.7922C30.6578 17.6421 30.5651 17.5087 30.6124 17.3838L36.8744 0.840214C36.9025 0.765814 36.9741 0.716714 37.0539 0.716714H41.1789C41.259 0.716714 41.3307 0.766214 41.3586 0.840914L47.5502 17.3845C47.597 17.5094 47.5041 17.6421 47.3704 17.6421H43.6554C43.574 17.6421 43.5015 17.591 43.4743 17.5148L42.3412 14.3317C42.314 14.2554 42.2415 14.2046 42.1603 14.2046Z" fill="#080808"/>
<path fill-rule="evenodd" clip-rule="evenodd" d="M7.20302 0.0581863C8.55797 -0.178014 9.89627 0.313586 10.7832 1.37489L16.8485 8.63479L22.4274 6.35869C23.6673 5.85309 25.032 6.12399 25.9898 7.06609C26.9472 8.00809 27.2514 9.37859 26.7834 10.6431L25.0214 15.425C24.5586 16.6812 23.5047 17.6521 22.2015 17.9059C21.9596 17.9529 21.7175 17.9759 21.4785 17.9759C20.3929 17.9759 19.3678 17.5002 18.648 16.6385L8.08209 3.99169C7.96712 3.85419 7.74797 3.89239 7.68542 4.06099L4.24607 13.3503C4.17497 13.5422 4.36397 13.7281 4.55207 13.6514L8.77104 11.9301C9.76599 11.5244 10.9036 12.0453 11.2456 13.0902C11.5576 14.0444 11.0332 15.0756 10.1109 15.4518L4.59932 17.7005C3.57895 18.1167 2.40647 18.0427 1.48802 17.4307C0.177399 16.5577 -0.321875 14.9154 0.207999 13.4846L4.27015 2.51409C4.75165 1.21339 5.84807 0.295386 7.20302 0.0581863ZM22.7721 10.7122C22.8427 10.5203 22.6537 10.3346 22.4656 10.4114L19.3833 11.6689L21.2324 13.882C21.3476 14.0197 21.5674 13.9812 21.6295 13.812L22.7721 10.7122Z" fill="url(#paint0_linear_249_2)"/>
</g>
</g>
<defs>
<linearGradient id="paint0_linear_249_2" x1="-0.000488178" y1="8.98789" x2="26.9995" y2="8.98789" gradientUnits="userSpaceOnUse">
<stop stop-color="#FF4F42"/>
<stop offset="1" stop-color="#FF8E3C"/>
</linearGradient>
<clipPath id="clip0_249_2">
<rect width="132" height="18" fill="white"/>
</clipPath>
</defs>
</svg>
