<?xml version="1.0" encoding="utf-8"?><svg version="1.1" id="Layer_1" xmlns="http://www.w3.org/2000/svg" xmlns:xlink="http://www.w3.org/1999/xlink" x="0px" y="0px" viewBox="0 0 35 24" style="enable-background:new 0 0 35 24;" xml:space="preserve"><style type="text/css">.st0{display:none;}.st1{display:inline;fill:#FFFFFF;}.st2{display:inline;fill-rule:evenodd;clip-rule:evenodd;fill:#FFFFFF;}.st3{fill:#00ADEF;}.st4{fill:#FFFFFF;}</style><g id="master_1_"><g class="st0"><path class="st1" d="M8.7,15.3l-0.3-1.2H6.3l-0.3,1.2H4l2.1-6.6h2.4l2.2,6.6H8.7z M8,12.6l-0.3-1.1c-0.1-0.2-0.1-0.5-0.2-0.9C7.4,10.2,7.4,10,7.3,9.8c0,0.2-0.1,0.4-0.2,0.8c-0.1,0.3-0.3,1-0.5,2.1L8,12.6L8,12.6z"/><path class="st1" d="M14.2,15.3l-1.3-4.7h0c0.1,0.8,0.1,1.4,0.1,1.9v2.8h-1.6V8.7h2.4l1.4,4.7h0l1.3-4.7h2.4v6.6h-1.6v-2.9c0-0.1,0-0.3,0-0.5s0-0.6,0.1-1.3h0l-1.3,4.7L14.2,15.3L14.2,15.3z"/><path class="st1" d="M24,15.3h-3.9V8.7H24v1.4h-2.1v1h2v1.4h-2v1.2H24V15.3z"/><path class="st1" d="M31,15.3h-2l-1.3-2l-1.3,2h-2l2.2-3.4l-2-3.2h2l1.2,2l1.1-2h2l-2.1,3.3L31,15.3z"/></g><g class="st0"><path class="st2" d="M9.3,10.1L8.2,7.6H6.8v3.5L5.3,7.6H4.7H4.1l-1.6,3.6h0.9l0.3-0.8h0.9h0.9l0.3,0.8h1.8V8.6l1.2,2.7h0.8l1.2-2.7v2.7h0.9V7.6h-1.4L9.3,10.1L9.3,10.1z M4.7,9.7H4.1l0.5-1.3v0l0.5,1.2H4.7L4.7,9.7z"/><path class="st2" d="M19.3,8.6c0-0.8-0.6-1-1.1-1h-0.6h-1.7v3.6h0.9V10h0.8h0.3c0.3,0,0.4,0.3,0.4,0.6l0,0.7h0.9l0-0.7c0-0.6-0.2-0.9-0.6-0.9C19.1,9.4,19.3,9,19.3,8.6L19.3,8.6z M17.9,9.2h-0.3h-0.8V8.4h0.8h0.3c0.4,0,0.5,0.2,0.5,0.4C18.4,9.1,18.2,9.2,17.9,9.2L17.9,9.2z"/><polygon class="st2" points="19.7,11.3 20.6,11.3 20.6,7.6 19.7,7.6 19.7,11.3 "/><path class="st2" d="M29.8,7.6v2.5l-1.5-2.5H27V11l-1.5-3.4h-0.6h-0.6L23,10.5c0,0-0.4,0-0.5,0c-0.3,0-0.6-0.3-0.6-1c0-0.8,0.5-1,1.1-1h0.5V7.6h-1.2c-0.4,0-1.3,0.3-1.3,1.8c0,1,0.4,1.8,1.4,1.8h1.2l0.3-0.8h0.9h0.9l0.4,0.8h1.8V8.6l1.6,2.7h1.2V7.6H29.8L29.8,7.6z M24.9,9.7h-0.5l0.5-1.3l0,0l0.5,1.2H24.9L24.9,9.7z"/><polygon class="st2" points="12.4,11.3 15.4,11.3 15.4,10.5 13.3,10.5 13.3,9.8 15.3,9.8 15.3,9.1 13.3,9.1 13.3,8.4 15.4,8.4 15.4,7.6 12.4,7.6 12.4,11.3 "/><path class="st2" d="M27.9,14.2c0,0-0.5,0-0.6,0c-0.2,0-0.4-0.1-0.4-0.3c0-0.4,0.3-0.3,0.7-0.3H29v-0.8h-1.9c-0.6,0-1,0.4-1,1c0,0.6,0.2,1.1,1.2,1.1c0.1,0,0.5,0,0.6,0c0.3,0,0.3,0.1,0.3,0.3c0,0.4-0.4,0.4-0.6,0.4h-1.5v0.8H28c0.6,0,1.1-0.4,1.1-1C29.2,14.8,29.1,14.2,27.9,14.2L27.9,14.2z"/><path class="st2" d="M31.3,14.2c-0.1,0-0.6,0-0.6,0c-0.2,0-0.4-0.1-0.4-0.3c0-0.4,0.3-0.3,0.6-0.3h1.4v-0.8h-1.9c-0.6,0-1.1,0.4-1.1,1c0,0.6,0.2,1.1,1.2,1.1c0.1,0,0.5,0,0.6,0c0.2,0,0.3,0.1,0.3,0.3c0,0.4-0.4,0.4-0.6,0.4h-1.5v0.8h1.9c0.6,0,1.1-0.4,1.1-1C32.5,14.8,32.4,14.2,31.3,14.2L31.3,14.2z"/><path class="st2" d="M17.4,12.7h-0.6h-2.3h-0.2l-1,1.1l-1-1.1h-1.1H8.8v3.6h2.4h1l1.1-1.2l1,1.2h0.2H16v-1.2h0.8h0.4c0.5,0,1.3,0,1.3-1.3C18.5,12.9,17.9,12.7,17.4,12.7L17.4,12.7z M11.7,15.6h-0.5H9.7v-0.7h1.5h0.5v-0.7h-0.5H9.7v-0.7h1.5h0.5l1,1L11.7,15.6L11.7,15.6z M15.1,16l-0.6-0.7l-0.6-0.8l0.6-0.7l0.6-0.7V16L15.1,16z M17.1,14.4h-0.3H16v-0.9h0.8h0.3c0.4,0,0.5,0.2,0.5,0.4C17.6,14.2,17.5,14.4,17.1,14.4L17.1,14.4z"/><path class="st2" d="M22.3,13.7c0-0.8-0.6-1-1.1-1h-0.6h-1.7v3.6h0.9v-1.3h0.8H21c0.3,0,0.4,0.3,0.4,0.6l0,0.7h0.9l0-0.7c0-0.6-0.2-0.8-0.6-0.9C22.2,14.5,22.3,14.2,22.3,13.7L22.3,13.7z M21,14.3h-0.3h-0.8v-0.8h0.8H21c0.4,0,0.5,0.2,0.5,0.4C21.5,14.2,21.3,14.3,21,14.3L21,14.3z"/><polygon class="st2" points="22.8,16.4 25.7,16.4 25.7,15.6 23.7,15.6 23.7,14.9 25.6,14.9 25.6,14.2 23.7,14.2 23.7,13.5 25.7,13.5 25.7,12.7 22.8,12.7 22.8,16.4 "/></g></g><g><polygon class="st3" points="7.2,10.2 6.3,12.4 7.2,12.4 8.1,12.4 7.2,10.3 "/><polygon class="st3" points="21.7,10.3 21.7,11.4 25.1,11.4 25.1,12.5 21.7,12.5 21.7,13.8 25.2,13.8 26.9,11.9 25.2,10.3 "/><path class="st3" d="M33,0H2C0.9,0,0,0.9,0,2v20c0,1.1,0.9,2,2,2h31c1.1,0,2-0.9,2-2V2C35,0.9,34.1,0,33,0z M19.3,15.1h-1.5v-4.5l-2.1,4.5h-1.4l-2-4.6v4.6H9.3l-0.6-1.4H7.2H5.7l-0.5,1.4H3.5l2.7-6.2h1h1l2.7,6v-6h2.4l1.8,4.1l1.8-4.1h2.4V15.1z M29.9,13.2l1.6,1.9h-1.9L27.8,13L26,15h-5.8V8.9h6l1.7,1.9l1.7-1.9h1.9l-1.6,1.8l-1.1,1.2L29.9,13.2z"/><path class="st4" d="M15.1,13l-1.8-4.1h-2.4v6l-2.7-6h-1h-1l-2.7,6.2h1.6l0.5-1.4h1.5h1.5l0.6,1.4h3.1v-4.6l2,4.6h1.4l2.1-4.5v4.5h1.5V8.9h-2.4L15.1,13z M7.2,12.4H6.3l0.9-2.2v0.1l0.9,2.1H7.2z"/><path class="st4" d="M31.5,8.9h-1.9l-1.7,1.9l-1.7-1.9h-6V15H26l1.8-2l1.8,2.1h1.9l-1.6-1.9l-1.1-1.3l1.1-1.2L31.5,8.9z M25.2,13.8h-3.5v-1.2h3.4v-1.2h-3.4v-1.1h3.5l1.7,1.6L25.2,13.8z"/></g></svg>