<svg width="25" height="31" viewBox="0 0 25 31" fill="none" xmlns="http://www.w3.org/2000/svg">
<path d="M11.5018 29.8587L0.405145 18.762C0.178695 18.5356 0.0514759 18.2284 0.0514759 17.9082C0.0514759 17.5879 0.178694 17.2808 0.405144 17.0544C0.631594 16.8279 0.938727 16.7007 1.25898 16.7007C1.57922 16.7007 1.88636 16.8279 2.11281 17.0544L11.1482 26.0898L11.1468 1.68328C11.1534 1.36732 11.2835 1.06652 11.5093 0.845393C11.7351 0.624265 12.0385 0.500419 12.3545 0.500419C12.6706 0.500419 12.974 0.624265 13.1998 0.845393C13.4256 1.06652 13.5557 1.36732 13.5623 1.68328L13.5623 26.0898L22.6005 17.0515C22.7126 16.9394 22.8458 16.8505 22.9923 16.7898C23.1388 16.7291 23.2958 16.6979 23.4543 16.6979C23.6129 16.6979 23.7699 16.7291 23.9164 16.7898C24.0629 16.8505 24.1961 16.9394 24.3082 17.0515C24.4203 17.1637 24.5093 17.2968 24.5699 17.4433C24.6306 17.5898 24.6619 17.7468 24.6619 17.9054C24.6619 18.0639 24.6306 18.221 24.5699 18.3675C24.5093 18.514 24.4203 18.6471 24.3082 18.7592L13.2066 29.8608C12.9801 30.0869 12.6732 30.2139 12.3531 30.2139C12.0331 30.2139 11.7261 30.0869 11.4996 29.8608" fill="#98A3A3"/>
</svg>
