<svg width="14" height="14" viewBox="0 0 14 14" fill="none" xmlns="http://www.w3.org/2000/svg">
<path d="M5.89467 14C5.89271 14 5.89043 14 5.88847 14C5.8075 13.9982 5.73111 13.9595 5.67626 13.8932L0.0783668 7.09603C-0.0176194 6.97936 -0.0264345 6.80364 0.0574718 6.67567C0.141378 6.54807 0.294172 6.50432 0.422807 6.5714L5.54632 9.25031C5.58941 9.27291 5.64034 9.26197 5.67332 9.22369L13.4887 0.102372C13.5945 -0.0212193 13.7675 -0.0347086 13.8876 0.0717475C14.0078 0.178204 14.0355 0.369241 13.9516 0.51252L6.17741 13.8115C6.16631 13.8308 6.15325 13.8483 6.13888 13.8647L6.1046 13.903C6.04877 13.965 5.97303 14 5.89467 14Z" fill="currentColor"/>
</svg>
