<?xml version="1.0" encoding="utf-8"?><svg version="1.1" id="Layer_1" xmlns="http://www.w3.org/2000/svg" xmlns:xlink="http://www.w3.org/1999/xlink" x="0px" y="0px" viewBox="0 0 35 24" style="enable-background:new 0 0 35 24;" xml:space="preserve"><style type="text/css">.st0{fill:#F5F5F5;}.st1{fill:#0A5296;}.st2{fill:#FFFFFF;}</style><g><path class="st0" d="M33,0H2C0.9,0,0,0.9,0,2v20c0,1.1,0.9,2,2,2h31c1.1,0,2-0.9,2-2V2C35,0.9,34.1,0,33,0z M29.5,12.1c0,5.3-4.3,9.7-9.7,9.7h-4.7c-5.3,0-9.7-4.3-9.7-9.7v-0.2c0-5.3,4.3-9.7,9.7-9.7h4.7c5.3,0,9.7,4.3,9.7,9.7V12.1z"/><path class="st1" d="M10.2,12c0,2.6,1.6,4.7,4.1,5.3V6.7C11.8,7.3,10.2,9.5,10.2,12z"/><path class="st1" d="M16.8,6.7v10.6c2.5-0.6,4.1-2.8,4.1-5.3S19.3,7.3,16.8,6.7z"/><path class="st1" d="M19.8,2.3h-4.7c-5.3,0-9.7,4.3-9.7,9.7v0.2c0,5.3,4.3,9.7,9.7,9.7h4.7c5.3,0,9.7-4.3,9.7-9.7v-0.2C29.5,6.6,25.2,2.3,19.8,2.3z M15.8,19.9c-4.4,0-7.9-3.5-7.9-7.9s3.5-7.9,7.9-7.9s7.9,3.5,7.9,7.9S20.1,19.9,15.8,19.9z"/><path class="st2" d="M15.8,4.1c-4.4,0-7.9,3.5-7.9,7.9s3.5,7.9,7.9,7.9s7.9-3.5,7.9-7.9S20.1,4.1,15.8,4.1z M14.3,17.3c-2.5-0.6-4.1-2.8-4.1-5.3s1.6-4.7,4.1-5.3V17.3z M16.8,17.3V6.7c2.5,0.6,4.1,2.8,4.1,5.3S19.3,16.7,16.8,17.3z"/></g></svg>