<?xml version="1.0" encoding="utf-8"?><svg version="1.1" id="Layer_1" xmlns="http://www.w3.org/2000/svg" xmlns:xlink="http://www.w3.org/1999/xlink" x="0px" y="0px" viewBox="0 0 35 24" style="enable-background:new 0 0 35 24;" xml:space="preserve"><style type="text/css">.st0{fill:#F5F5F5;}.st1{fill:none;}.st2{fill:url(#SVGID_1_);}.st3{fill:#001722;}.st4{fill:#231F20;}.st5{fill:#F4A428;}</style><path class="st0" d="M33,0H2C0.9,0,0,0.9,0,2v20c0,1.1,0.9,2,2,2h31c1.1,0,2-0.9,2-2V2C35,0.9,34.1,0,33,0z"/><g><g><path class="st1" d="M28.3,10.1c0-0.4-0.3-0.6-0.7-0.6h-0.2v1.2h0.2C28,10.7,28.3,10.5,28.3,10.1z"/><path class="st1" d="M7.3,10.9c0-0.4-0.2-0.7-0.4-1c-0.3-0.2-0.6-0.3-1-0.3H5.6v2.6h0.2c0.5,0,0.8-0.1,1-0.3C7.1,11.6,7.3,11.3,7.3,10.9z"/><path class="st1" d="M29.5,9.5c0.1,0,0.2-0.1,0.2-0.2c0-0.1-0.1-0.2-0.2-0.2c-0.1,0-0.2,0.1-0.2,0.2C29.3,9.4,29.4,9.5,29.5,9.5z M29.4,9.1h0.1c0.1,0,0.1,0,0.1,0.1c0,0,0,0.1-0.1,0.1l0.1,0.1h-0.1l-0.1-0.1v0.1h-0.1V9.1z"/><path class="st1" d="M29.5,9.2C29.5,9.2,29.5,9.2,29.5,9.2L29.5,9.2L29.5,9.2L29.5,9.2C29.5,9.3,29.5,9.2,29.5,9.2z"/><radialGradient id="SVGID_1_" cx="11.4056" cy="-475.1927" r="2.0675" gradientTransform="matrix(1 0 0 1 6.416 486.083)" gradientUnits="userSpaceOnUse"><stop  offset="5.618000e-03" style="stop-color:#FFEEE0"/><stop  offset="0.1096" style="stop-color:#FEE9D7"/><stop  offset="0.2793" style="stop-color:#FDDBBF"/><stop  offset="0.4935" style="stop-color:#FBC597"/><stop  offset="0.744" style="stop-color:#F8A560"/><stop  offset="1" style="stop-color:#F48120"/></radialGradient><path class="st2" d="M17.8,12.9c1.2,0,2.1-0.9,2.1-2c0-1.1-0.9-2-2.1-2c-1.2,0-2.1,0.9-2.1,2C15.7,12,16.6,12.9,17.8,12.9z"/><path class="st3" d="M7.3,12.4C7.8,12,8,11.5,8,10.9c0-1.2-0.9-2-2.1-2H4.8v3.9h1.1C6.5,12.8,7,12.7,7.3,12.4z M5.6,12.2V9.6h0.2c0.5,0,0.8,0.1,1,0.3c0.3,0.2,0.4,0.6,0.4,1c0,0.4-0.2,0.8-0.4,1c-0.2,0.2-0.6,0.3-1,0.3H5.6z"/><rect x="8.4" y="8.9" class="st3" width="0.8" height="3.9"/><path class="st3" d="M10.8,12.2c-0.4,0-0.7-0.2-0.8-0.5l-0.5,0.5c0.4,0.5,0.8,0.7,1.4,0.7c0.8,0,1.4-0.5,1.4-1.3c0-0.6-0.3-0.9-1.1-1.2c-0.5-0.2-0.6-0.3-0.6-0.5c0-0.2,0.2-0.4,0.6-0.4c0.2,0,0.4,0.1,0.6,0.3L12,9.3c-0.3-0.3-0.7-0.4-1.2-0.4c-0.7,0-1.2,0.5-1.2,1.1c0,0.5,0.2,0.8,1,1.1c0.3,0.1,0.5,0.2,0.5,0.2c0.2,0.1,0.2,0.2,0.2,0.4C11.4,12,11.1,12.2,10.8,12.2z"/><path class="st3" d="M14.5,12.9c0.3,0,0.6-0.1,1-0.2v-0.9c-0.3,0.3-0.6,0.4-0.9,0.4c-0.8,0-1.3-0.6-1.3-1.4c0-0.8,0.6-1.3,1.3-1.3c0.4,0,0.6,0.1,1,0.4V9.1c-0.3-0.2-0.6-0.2-0.9-0.2c-1.2,0-2.1,0.9-2.1,2.1C12.4,12,13.3,12.9,14.5,12.9z"/><polygon class="st3" points="21.8,12.9 23.5,8.9 22.7,8.9 21.6,11.6 20.6,8.9 19.8,8.9 21.4,12.9 "/><polygon class="st3" points="26.1,12.2 24.6,12.2 24.6,11.1 26,11.1 26,10.5 24.6,10.5 24.6,9.6 26.1,9.6 26.1,8.9 23.9,8.9 23.9,12.8 26.1,12.8 "/><path class="st3" d="M27.3,11.3h0.1l1.1,1.6h0.9l-1.2-1.7c0.6-0.1,0.9-0.5,0.9-1.1c0-0.7-0.5-1.2-1.4-1.2h-1.1v3.9h0.8V11.3z M27.3,9.5h0.2c0.5,0,0.7,0.2,0.7,0.6c0,0.4-0.3,0.6-0.7,0.6h-0.2V9.5z"/><path class="st4" d="M29.5,9.3l0.1,0.1h0.1L29.5,9.3c0.1,0,0.2-0.1,0.2-0.1c0-0.1,0-0.1-0.1-0.1h-0.1v0.3h0.1V9.3z M29.5,9.2L29.5,9.2C29.5,9.2,29.5,9.2,29.5,9.2C29.5,9.2,29.5,9.3,29.5,9.2L29.5,9.2L29.5,9.2z"/><path class="st4" d="M29.5,9.6c0.2,0,0.3-0.1,0.3-0.3S29.7,9,29.5,9c-0.2,0-0.3,0.1-0.3,0.3C29.2,9.4,29.3,9.6,29.5,9.6z M29.5,9c0.1,0,0.2,0.1,0.2,0.2c0,0.1-0.1,0.2-0.2,0.2c-0.1,0-0.2-0.1-0.2-0.2C29.3,9.1,29.4,9,29.5,9z"/><path class="st5" d="M25.4,19c-4.7,1.8-10.6,3.6-17.6,5H33c1.1,0,2-0.9,2-2v-3v-4.3C32.7,15.9,29.5,17.4,25.4,19z"/></g></g></svg>