<?xml version="1.0" encoding="utf-8"?><svg version="1.1" id="Layer_1" xmlns="http://www.w3.org/2000/svg" xmlns:xlink="http://www.w3.org/1999/xlink" x="0px" y="0px" viewBox="0 0 35 24" style="enable-background:new 0 0 35 24;" xml:space="preserve"><style type="text/css">.st0{fill:#192169;}.st1{fill:#FF0016;}.st2{fill:#FFA916;}</style><g><path class="st0" d="M17,16.4C17,16.4,17,16.4,17,16.4c0.1,0.2,0.3,0.4,0.4,0.5c0,0,0,0,0,0C17.3,16.7,17.2,16.6,17,16.4z"/><path class="st0" d="M15.7,12.8C15.7,12.8,15.7,12.8,15.7,12.8c0,0.2,0.1,0.5,0.1,0.7c0,0,0,0,0,0C15.7,13.3,15.7,13,15.7,12.8z"/><path class="st0" d="M16.6,15.8C16.6,15.8,16.6,15.8,16.6,15.8L16.6,15.8c-0.3-0.5-0.5-1-0.7-1.5h0c0.2,0.8,0.6,1.5,1.1,2.1c0,0,0,0,0,0C16.9,16.2,16.8,16,16.6,15.8z"/><path class="st0" d="M15.8,13.6C15.8,13.6,15.8,13.5,15.8,13.6c0,0.2,0.1,0.5,0.2,0.7c0,0,0,0,0,0C15.9,14,15.8,13.8,15.8,13.6z"/><path class="st0" d="M17.1,7.6c-0.6,0.9-1.1,1.8-1.3,2.9c0,0,0,0,0,0C16,9.4,16.5,8.4,17.1,7.6z"/><path class="st0" d="M15.8,10.5C15.8,10.5,15.8,10.5,15.8,10.5c-0.1,0.2-0.1,0.5-0.1,0.7c0,0,0,0,0,0C15.7,11,15.7,10.7,15.8,10.5z"/><path class="st0" d="M15.7,11.3c0,0.2,0,0.5,0,0.8C15.6,11.7,15.6,11.5,15.7,11.3L15.7,11.3z"/><path class="st0" d="M15.6,12c0,0.3,0,0.5,0,0.8l0,0C15.6,12.5,15.6,12.3,15.6,12z"/><path class="st0" d="M33,0H2C0.9,0,0,0.9,0,2v20c0,1.1,0.9,2,2,2h31c1.1,0,2-0.9,2-2V2C35,0.9,34.1,0,33,0z M23.1,19.5c-2.2,0-4.2-1-5.6-2.6c-1.4,1.6-3.4,2.6-5.6,2.6c-4.1,0-7.5-3.4-7.5-7.5c0-4.1,3.4-7.5,7.5-7.5c2.2,0,4.3,1,5.6,2.5c1.4-1.6,3.4-2.5,5.6-2.5c4.1,0,7.5,3.4,7.5,7.5C30.6,16.1,27.3,19.5,23.1,19.5z"/><path class="st1" d="M17.5,16.9c-0.1-0.2-0.3-0.3-0.4-0.5c0,0,0,0,0,0c-0.5-0.6-0.8-1.3-1.1-2.1h0c0,0,0,0,0,0c-0.1-0.2-0.1-0.5-0.2-0.7c0,0,0,0,0,0c0-0.2-0.1-0.5-0.1-0.7c0,0,0,0,0-0.1h0c0-0.2,0-0.5,0-0.8s0-0.5,0-0.8h0c0,0,0,0,0,0c0-0.3,0.1-0.5,0.1-0.7c0,0,0,0,0,0c0.2-1.1,0.7-2.1,1.3-2.9c0.1-0.2,0.3-0.3,0.4-0.5c-1.4-1.6-3.4-2.5-5.6-2.5c-4.1,0-7.5,3.4-7.5,7.5c0,4.1,3.4,7.5,7.5,7.5C14.1,19.5,16.1,18.5,17.5,16.9C17.5,16.9,17.5,16.9,17.5,16.9C17.5,16.9,17.5,16.9,17.5,16.9z"/><path class="st1" d="M15.8,10.5c0.1-0.2,0.1-0.5,0.2-0.7h3c-0.2-0.5-0.4-1-0.7-1.5h-1.7c0.2-0.4,0.5-0.8,0.9-1.2c-0.1,0.2-0.3,0.3-0.4,0.5C16.5,8.4,16,9.4,15.8,10.5z"/><path class="st1" d="M15.7,12.8c0,0.2,0.1,0.5,0.1,0.7C15.7,13.3,15.7,13,15.7,12.8z"/><path class="st1" d="M17,16.4c0.1,0.2,0.3,0.4,0.4,0.5C17.3,16.7,17.2,16.6,17,16.4z"/><path class="st1" d="M15.8,13.6c0.1,0.2,0.1,0.5,0.2,0.7C15.9,14,15.8,13.8,15.8,13.6z"/><path class="st1" d="M15.8,10.5c-0.1,0.2-0.1,0.5-0.1,0.7C15.7,11,15.7,10.7,15.8,10.5z"/><path class="st1" d="M19.3,12.8c0-0.2,0-0.5,0-0.8c0-0.3,0-0.5-0.1-0.8h-3.7c0,0.2,0,0.5,0,0.8s0,0.5,0,0.8H19.3z"/><path class="st1" d="M16.6,15.8c0.1,0.2,0.2,0.4,0.4,0.6C16.9,16.2,16.8,16,16.6,15.8z"/><path class="st1" d="M18.4,15.8c0.3-0.5,0.5-1,0.7-1.5h-3c0.2,0.5,0.4,1,0.7,1.5H18.4z"/><path class="st2" d="M15.7,11.2C15.7,11.2,15.7,11.2,15.7,11.2C15.7,11.2,15.7,11.2,15.7,11.2L15.7,11.2C15.7,11.2,15.7,11.2,15.7,11.2z"/><path class="st2" d="M23.1,4.5c-2.2,0-4.3,1-5.6,2.5c1.2,1.3,1.9,3,1.9,5s-0.7,3.6-1.9,4.9c0,0,0,0,0,0c1.4,1.6,3.4,2.6,5.6,2.6c4.1,0,7.5-3.4,7.5-7.5C30.6,7.9,27.3,4.5,23.1,4.5z"/><path class="st2" d="M15.8,10.5C15.8,10.5,15.8,10.5,15.8,10.5C15.8,10.5,15.8,10.5,15.8,10.5C15.8,10.5,15.8,10.5,15.8,10.5C15.8,10.5,15.8,10.5,15.8,10.5z"/><path class="st2" d="M17.5,16.9C17.5,16.9,17.5,16.9,17.5,16.9C17.5,16.9,17.5,16.9,17.5,16.9C17.5,16.9,17.5,16.9,17.5,16.9z"/><polygon class="st2" points="16.6,15.8 16.6,15.8 16.6,15.8 "/><path class="st2" d="M15.8,13.5C15.8,13.5,15.8,13.5,15.8,13.5C15.8,13.5,15.8,13.5,15.8,13.5C15.8,13.5,15.8,13.6,15.8,13.5C15.8,13.5,15.8,13.5,15.8,13.5z"/><ellipse transform="matrix(0.9623 -0.272 0.272 0.9623 -3.2729 4.8823)" class="st2" cx="16" cy="14.2" rx="0" ry="0"/><path class="st2" d="M15.7,12.8L15.7,12.8C15.7,12.8,15.7,12.8,15.7,12.8C15.7,12.8,15.7,12.8,15.7,12.8C15.7,12.8,15.7,12.8,15.7,12.8z"/><path class="st2" d="M17,16.3C17,16.3,17,16.3,17,16.3C17,16.4,17,16.4,17,16.3C17,16.4,17,16.4,17,16.3C17,16.4,17,16.4,17,16.3z"/><polygon class="st2" points="16,14.3 16,14.3 16,14.2 "/><path class="st2" d="M15.8,13.5C15.8,13.5,15.8,13.5,15.8,13.5C15.8,13.5,15.8,13.5,15.8,13.5z"/><path class="st2" d="M17,16.4C17,16.4,17,16.4,17,16.4C17,16.4,17,16.4,17,16.4z"/><path class="st2" d="M15.7,12.8C15.7,12.8,15.7,12.8,15.7,12.8C15.7,12.8,15.7,12.8,15.7,12.8L15.7,12.8z"/><path class="st2" d="M15.7,11.3L15.7,11.3C15.7,11.2,15.7,11.2,15.7,11.3C15.7,11.2,15.7,11.2,15.7,11.3z"/><path class="st2" d="M15.8,10.5C15.8,10.5,15.8,10.5,15.8,10.5C15.8,10.5,15.8,10.5,15.8,10.5z"/><path class="st2" d="M17.5,16.9C17.5,16.9,17.5,16.9,17.5,16.9C17.5,16.9,17.5,16.9,17.5,16.9C17.5,16.9,17.5,16.9,17.5,16.9C17.5,16.9,17.5,16.9,17.5,16.9z"/><path class="st2" d="M18.4,8.3c0.3,0.5,0.5,1,0.7,1.5h-3c-0.1,0.2-0.1,0.5-0.2,0.7c0,0,0,0,0,0c-0.1,0.2-0.1,0.5-0.1,0.7c0,0,0,0,0,0h3.7c0,0.2,0.1,0.5,0.1,0.8c0,0.3,0,0.5,0,0.8h-3.7c0,0,0,0,0,0.1c0,0.2,0.1,0.5,0.1,0.7c0,0,0,0,0,0.1c0.1,0.2,0.1,0.5,0.2,0.7c0,0,0,0,0,0h3c-0.2,0.5-0.4,1-0.7,1.5h-1.7c0,0,0,0,0,0c0.1,0.2,0.2,0.4,0.4,0.6c0,0,0,0,0,0c0.1,0.2,0.3,0.4,0.4,0.5c0,0,0,0,0,0c1.2-1.3,1.9-3,1.9-4.9s-0.7-3.6-1.9-5c-0.3,0.4-0.6,0.8-0.9,1.2H18.4z"/></g></svg>