<svg width="360" height="150" viewBox="0 0 360 150" fill="none" xmlns="http://www.w3.org/2000/svg">
<path fill-rule="evenodd" clip-rule="evenodd" d="M360.003 77.4001C360.003 51.8001 347.603 31.6001 323.903 31.6001C300.103 31.6001 285.703 51.8001 285.703 77.2001C285.703 107.3 302.703 122.5 327.103 122.5C339.003 122.5 348.003 119.8 354.803 116V96.0001C348.003 99.4001 340.203 101.5 330.303 101.5C320.603 101.5 312.003 98.1001 310.903 86.3001H359.803C359.803 85.0001 360.003 79.8001 360.003 77.4001ZM310.603 67.9001C310.603 56.6001 317.503 51.9001 323.803 51.9001C329.903 51.9001 336.403 56.6001 336.403 67.9001H310.603Z" fill="#635BFF"/>
<path fill-rule="evenodd" clip-rule="evenodd" d="M247.103 31.6001C237.303 31.6001 231.003 36.2001 227.503 39.4001L226.203 33.2001H204.203V149.8L229.203 144.5L229.303 116.2C232.903 118.8 238.203 122.5 247.003 122.5C264.903 122.5 281.203 108.1 281.203 76.4001C281.103 47.4001 264.603 31.6001 247.103 31.6001ZM241.103 100.5C235.203 100.5 231.703 98.4001 229.303 95.8001L229.203 58.7001C231.803 55.8001 235.403 53.8001 241.103 53.8001C250.203 53.8001 256.503 64.0001 256.503 77.1001C256.503 90.5001 250.303 100.5 241.103 100.5Z" fill="#635BFF"/>
<path fill-rule="evenodd" clip-rule="evenodd" d="M169.797 25.7L194.897 20.3V0L169.797 5.3V25.7Z" fill="#635BFF"/>
<path d="M194.897 33.2998H169.797V120.8H194.897V33.2998Z" fill="#635BFF"/>
<path fill-rule="evenodd" clip-rule="evenodd" d="M142.903 40.6998L141.303 33.2998H119.703V120.8H144.703V61.4998C150.603 53.7998 160.603 55.1998 163.703 56.2998V33.2998C160.503 32.0998 148.803 29.8998 142.903 40.6998Z" fill="#635BFF"/>
<path fill-rule="evenodd" clip-rule="evenodd" d="M92.8984 11.6001L68.4984 16.8001L68.3984 96.9001C68.3984 111.7 79.4984 122.6 94.2984 122.6C102.498 122.6 108.498 121.1 111.798 119.3V99.0001C108.598 100.3 92.7984 104.9 92.7984 90.1001V54.6001H111.798V33.3001H92.7984L92.8984 11.6001Z" fill="#635BFF"/>
<path fill-rule="evenodd" clip-rule="evenodd" d="M25.3 58.7001C25.3 54.8001 28.5 53.3001 33.8 53.3001C41.4 53.3001 51 55.6001 58.6 59.7001V36.2001C50.3 32.9001 42.1 31.6001 33.8 31.6001C13.5 31.6001 0 42.2001 0 59.9001C0 87.5001 38 83.1001 38 95.0001C38 99.6001 34 101.1 28.4 101.1C20.1 101.1 9.5 97.7001 1.1 93.1001V116.9C10.4 120.9 19.8 122.6 28.4 122.6C49.2 122.6 63.5 112.3 63.5 94.4001C63.4 64.6001 25.3 69.9001 25.3 58.7001Z" fill="#635BFF"/>
</svg>
