<?xml version="1.0" encoding="utf-8"?><svg version="1.1" id="Layer_1" xmlns="http://www.w3.org/2000/svg" xmlns:xlink="http://www.w3.org/1999/xlink" x="0px" y="0px" viewBox="0 0 35 24" style="enable-background:new 0 0 35 24;" xml:space="preserve"><style type="text/css">.st0{fill:#FCFCFC;}.st1{fill:#005098;}.st2{fill:#F6A500;}.st3{fill:#0A5296;}.st4{fill:#F4A428;}</style><g><path class="st0" d="M0,19h35V5H0V19z M27.4,7.9h1.8l1.8,8.3h-2.1c0,0-0.2-1-0.3-1.2c-0.3,0-2.6,0-2.9,0c-0.1,0.2-0.5,1.2-0.5,1.2h-2.4l3.4-7.6C26.5,8,26.9,7.9,27.4,7.9z M16.9,14l0.3,0.1c0.7,0.3,1.2,0.4,2.1,0.4c0.7,0,1.4-0.3,1.4-0.8c0-0.4-0.3-0.6-1.2-1c-0.9-0.4-2-1.1-2-2.3c0-1.6,1.6-2.7,3.8-2.7c0.9,0,1.6,0.2,2,0.3L23,9.9l-0.2-0.1c-0.4-0.2-1-0.3-1.7-0.3c-0.9,0-1.3,0.4-1.3,0.7c0,0.4,0.5,0.6,1.3,1c1.3,0.6,1.9,1.3,1.9,2.3c0,1.7-1.6,2.8-3.9,2.8c-1,0-2-0.2-2.5-0.4L16.9,14z M16.5,7.9l-1.4,8.3h-2.3l1.4-8.3H16.5z M3,7.9h3.7c0.5,0,0.9,0.2,1,0.7l0.8,3.8l0.2,1.2L11,7.9h2.4l-3.6,8.3l-2.4,0L5.4,9C4.7,8.6,3.9,8.2,3,8L3,7.9z"/><path class="st0" d="M27.7,10.8l-0.2-0.7c-0.1,0.3-0.3,0.8-0.3,0.8c0,0-0.7,1.8-0.9,2.3h1.9C28.2,12.8,27.7,10.8,27.7,10.8z"/><polygon class="st1" points="15.1,16.2 16.5,7.9 14.3,7.9 12.9,16.2 "/><path class="st1" d="M23,13.5c0-0.9-0.6-1.7-1.9-2.3c-0.8-0.4-1.3-0.6-1.3-1c0-0.3,0.4-0.7,1.3-0.7c0.7,0,1.3,0.2,1.7,0.3L23,9.9l0.3-1.8c-0.4-0.2-1.2-0.3-2-0.3c-2.2,0-3.8,1.1-3.8,2.7c0,1.2,1.1,1.9,2,2.3c0.9,0.4,1.2,0.7,1.2,1c0,0.6-0.7,0.8-1.4,0.8c-0.9,0-1.4-0.1-2.1-0.4L16.9,14l-0.3,1.9c0.5,0.2,1.5,0.4,2.5,0.4C21.5,16.3,23,15.2,23,13.5z"/><path class="st1" d="M25.2,16.2c0,0,0.4-1,0.5-1.2c0.3,0,2.6,0,2.9,0c0.1,0.3,0.3,1.2,0.3,1.2H31l-1.8-8.3h-1.8c-0.5,0-0.9,0.1-1.2,0.7l-3.4,7.6H25.2z M27.3,10.9c0,0,0.2-0.5,0.3-0.8l0.2,0.7c0,0,0.4,2,0.5,2.4h-1.9C26.6,12.7,27.3,10.9,27.3,10.9z"/><path class="st1" d="M5.4,9l2,7.2l2.4,0l3.6-8.3H11l-2.2,5.7l-0.2-1.2C8,11,6.9,9.8,5.4,9z"/><path class="st2" d="M5.4,8.9c1.4,0.7,2.7,2.2,3.1,3.5L7.7,8.6C7.6,8,7.2,7.9,6.7,7.9H3L3,8C3.9,8.2,4.7,8.6,5.4,8.9L5.4,8.9z"/><path class="st2" d="M5.4,8.9L5.4,8.9C6.9,9.8,8,11,8.5,12.4C8.1,11,6.8,9.6,5.4,8.9z"/><path class="st3" d="M33,0H2C0.9,0,0,0.9,0,2v3h35V2C35,0.9,34.1,0,33,0z"/><path class="st4" d="M0,22c0,1.1,0.9,2,2,2h31c1.1,0,2-0.9,2-2v-3H0V22z"/></g></svg>